<?xml version="1.0" encoding="utf-8"?>
<!-- Svg Vector Icons : http://www.onlinewebfonts.com/icon -->
<!DOCTYPE svg PUBLIC "-//W3C//DTD SVG 1.1//EN" "http://www.w3.org/Graphics/SVG/1.1/DTD/svg11.dtd">
<svg version="1.1" xmlns="http://www.w3.org/2000/svg" xmlns:xlink="http://www.w3.org/1999/xlink" x="0px" y="0px" viewBox="0 0 1000 1000" enable-background="new 0 0 1000 1000" xml:space="preserve">
<metadata> Svg Vector Icons : http://www.onlinewebfonts.com/icon </metadata>
<g><g transform="translate(0.000000,503.000000) scale(0.100000,-0.100000)"><path d="M4529.8,4905.3c-260.9-27.3-574.4-85.7-847-161.6C2606,4447.7,1609,3739,974.3,2819.9l-116.8-171.3h516c521.8,0,597.8-7.8,646.5-74c42.8-54.5,33.1-155.8-21.4-208.3l-46.7-48.7h-644.5H662.7l-107.1-222c-58.4-122.7-105.1-231.7-105.1-243.4c0-15.6,292.1-21.4,973.6-21.4c1067,0,1074.8,0,1104-112.9c21.4-79.8,9.7-126.6-44.8-173.3l-48.7-44.8H1377.3H320l-40.9-144.1c-23.4-79.8-42.8-153.8-42.8-165.5c0-15.6,231.7-21.4,778.9-21.4c749.7,0,780.8-1.9,817.8-38.9c83.7-83.7,66.2-214.2-38.9-266.8c-37-19.5-245.3-25.3-839.2-25.3H162.3l-11.7-62.3c-19.5-111-50.6-410.8-50.6-496.5v-83.7h233.7h233.7V29.6v-165.5H333.7H100v-81.8c0-87.6,31.2-387.5,50.6-496.5l11.7-64.2l1300.7-3.9l1300.7-5.8l50.6-46.7c68.1-64.2,68.1-161.6,1.9-225.9l-46.7-48.7H1501.9c-897.6,0-1265.6-5.8-1265.6-21.4c0-11.7,19.5-85.7,42.8-165.5l40.9-144.1h981.4h981.4l46.7-48.7c72-70.1,66.2-167.5-11.7-231.7l-60.4-50.6H1354c-630.9,0-903.5-5.8-903.5-21.4c0-11.7,46.7-120.7,105.1-243.4l107.1-222h969.7c950.2,0,973.6,0,1014.5-38.9c89.6-83.7,72-212.2-35-266.8c-37-19.5-259-25.3-901.5-25.3H857.4l103.2-151.9l103.2-149.9l1185.8-9.7l1183.9-9.7l46.7-54.5c50.6-60.4,58.4-111,23.4-175.2c-48.7-91.5-27.3-89.6-1109.9-91.5c-595.8,0-1028.1-7.8-1028.1-17.5c0-9.7,105.1-118.8,235.6-243.4l235.6-225.9h773c578.3,0,782.8-5.8,819.8-25.3c107.1-54.5,124.6-183,35-266.8c-40.9-37-66.2-38.9-597.8-38.9c-477.1,0-551-3.9-527.7-27.3c15.6-15.6,130.5-85.7,253.1-155.8c512.1-290.1,1111.8-494.6,1733-590c313.5-46.7,1032-46.7,1343.5,0c560.8,85.7,1033.9,237.6,1518.8,482.9c144.1,72.1,315.4,165.5,379.7,206.4l116.8,74l-726.3,9.7l-728.2,9.7l-46.7,54.5c-58.4,70.1-58.4,132.4,0,202.5l46.7,54.5l965.8,9.7l967.7,9.7l231.7,220c128.5,122.7,233.7,229.8,233.7,239.5c0,9.7-317.4,17.5-782.8,17.5c-825.6,1.9-821.7,0-868.4,91.5c-35,64.3-27.3,114.9,23.4,175.2l46.7,54.5l940.5,9.7l938.5,9.7l105.2,151.9l107.1,149.9H7804.9c-1374.7,0-1433.1,3.9-1474,77.9c-38.9,70.1-23.4,169.4,31.2,212.2c50.6,40.9,64.3,40.9,1511,40.9h1458.4l93.5,200.6c52.6,109,101.3,218.1,107.1,241.4l13.6,42.8l-1002.8,5.8l-1002.8,5.8l-44.8,42.8c-64.3,64.2-58.4,173.3,11.7,231.7l52.6,46.7h1057.3h1057.3l40.9,153.8c23.4,83.8,42.8,157.7,42.8,165.5c0,5.9-350.5,11.7-778.8,11.7h-780.8l-46.7,48.7c-62.3,60.4-62.3,146-1.9,218.1l46.7,54.5l817.8,5.8l817.8,5.8l21.4,149.9c11.7,81.8,25.3,225.9,33.1,319.3l13.6,169.4l-251.2,5.8l-251.2,5.8l-5.8,161.6l-5.8,159.7h257h257l-13.6,171.3c-7.8,93.5-21.4,237.6-33.1,321.3l-21.4,149.9h-699c-765.2,0-815.9,5.8-854.8,107.1c-29.2,75.9-25.3,97.4,31.2,163.6l50.6,60.4h699c383.6,0,699,5.8,699,11.7c0,7.8-19.5,81.8-42.8,165.5l-40.9,153.8h-981.4h-981.4l-46.7,48.7c-52.6,52.6-64.2,153.8-23.4,206.4c56.5,74,87.6,75.9,1006.7,75.9h897.6l-13.6,44.8c-5.8,23.4-54.5,132.4-107.1,243.4l-93.5,198.6h-726.3c-704.9,0-730.2,1.9-771.1,38.9c-89.6,83.7-72.1,212.2,35,266.8c35.1,17.5,210.3,25.3,658.1,25.3h609.5l-62.3,93.5C8280,3908.4,7078.6,4665.8,5688.3,4878C5443,4915,4775.1,4930.6,4529.8,4905.3z M4808.2,3853.8l-5.8-412.8l-81.8-23.4c-44.8-13.6-140.2-56.5-212.2-97.4l-130.5-70.1l-280.4,278.4c-151.9,151.9-278.4,284.3-278.4,292.1c0,27.3,237.6,192.8,370,259c142.1,70.1,288.2,120.7,447.8,157.7C4831.6,4280.3,4814.1,4319.2,4808.2,3853.8z M5470.2,4204.3c243.4-64.3,502.4-198.6,673.7-348.5l72-64.3l-286.2-288.2l-286.2-286.2l-72.1,50.6c-85.7,64.3-233.7,132.4-344.6,159.7l-83.7,21.4v410.9v408.9l93.5-11.7C5287.2,4249.1,5392.3,4225.7,5470.2,4204.3z M4117,2905.6c-25.3-50.6-56.5-128.5-68.2-173.3l-19.5-83.7h-410.8h-408.9l13.6,111c25.3,218.1,136.3,498.5,292.1,730.2l60.4,93.5l294-294l294-292.1L4117,2905.6z M6603.5,3261.9c87.6-177.2,175.2-459.5,175.2-568.6v-44.8h-405h-407l-52.6,157.7l-54.5,159.7l288.2,288.2l290.1,290.1l35-42.8C6492.5,3476.1,6550.9,3369,6603.5,3261.9z M5269.7,3069.1c132.4-60.4,253.1-181.1,319.3-321.3c42.8-91.5,50.6-134.4,50.6-274.6c-1.9-142.1-9.7-181.1-58.4-278.4c-241.5-484.8-934.6-482.9-1172.2,1.9c-46.7,97.4-54.5,134.4-54.5,286.2c0,163.6,3.9,185,66.2,297.9C4588.2,3090.6,4954.2,3215.2,5269.7,3069.1z M4058.5,2206.5c17.5-62.3,68.1-173.3,112.9-247.3l79.8-134.4l-278.5-278.4c-153.8-153.8-286.2-280.4-294-280.4c-31.1,0-220,274.6-299.9,438.1c-81.8,169.4-163.6,447.8-163.6,560.8v52.6h405h407L4058.5,2206.5z M6770.9,2206.5c-29.2-247.3-210.3-656.2-379.7-856.7l-52.6-62.3l-286.2,286.2l-288.2,288.2l68.2,111c35,62.3,81.8,163.6,101.2,227.8l35.1,116.8h407h408.9L6770.9,2206.5z M5811,1347.9l288.2-288.2L5996,989.6c-241.4-159.7-590-286.2-788.6-288.2h-64.2v407v405l74,13.6c38.9,5.8,116.8,33.1,169.4,58.4c54.5,27.3,107.1,48.7,116.8,48.7C5515,1636,5653.3,1505.6,5811,1347.9z M4691.4,1554.3l120.7-44.8v-403.1v-405h-54.5c-159.7,0-547.1,144.1-734.1,272.6l-91.5,64.3l288.2,290.1c185,185,299.9,286.2,319.3,280.4C4555.1,1602.9,4623.2,1579.6,4691.4,1554.3z M8901.1,29.6v-165.5H4977.6H1054.1V29.6v165.5h3923.5h3923.5V29.6z"/><path d="M4928.9,2623.2c-149.9-77.9-103.2-307.7,64.3-305.7c144.1,1.9,218.1,157.7,126.6,260.9C5065.2,2638.8,4993.2,2656.3,4928.9,2623.2z"/></g></g>
</svg>